<?xml version="1.0" standalone="no"?>
<!DOCTYPE svg PUBLIC "-//W3C//DTD SVG 20010904//EN"
 "http://www.w3.org/TR/2001/REC-SVG-20010904/DTD/svg10.dtd">
<svg version="1.0" xmlns="http://www.w3.org/2000/svg"
 width="518.000000pt" height="518.000000pt" viewBox="0 0 518.000000 518.000000"
 preserveAspectRatio="xMidYMid meet">
<metadata>
Created by potrace 1.14, written by Peter Selinger 2001-2017
</metadata>
<g transform="translate(0.000000,518.000000) scale(0.100000,-0.100000)"
fill="#000000" stroke="none">
<path d="M182 3577 c-6 -7 -20 -66 -31 -132 -12 -66 -23 -131 -26 -145 -3 -14
-8 -38 -10 -55 -3 -16 -12 -66 -20 -110 -8 -44 -17 -100 -20 -125 -4 -24 -8
-47 -10 -50 -2 -3 -6 -23 -9 -45 -7 -44 -16 -99 -23 -130 -2 -11 -6 -38 -9
-60 -3 -22 -9 -54 -14 -71 -15 -58 -8 -61 176 -62 97 0 175 3 186 9 13 7 23 7
33 -1 7 -6 33 -11 57 -11 23 1 124 1 223 2 99 0 185 5 192 10 6 6 14 6 16 2 3
-5 42 -10 85 -10 59 -2 83 2 92 12 10 12 15 12 34 0 28 -19 83 -25 117 -13 14
5 35 5 48 0 l23 -8 -26 -17 c-14 -10 -34 -34 -45 -55 -20 -39 -52 -192 -53
-251 0 -42 29 -114 72 -176 16 -24 30 -46 30 -49 0 -3 -31 -6 -69 -6 -39 0
-73 -4 -76 -10 -7 -11 -10 -27 -19 -86 -3 -22 -10 -59 -16 -84 -26 -121 -12
-184 52 -227 78 -52 222 -35 299 34 l40 36 -5 -28 c-10 -54 -13 -54 365 -54
350 1 350 1 359 22 5 12 9 17 9 11 2 -21 78 -47 118 -40 21 4 115 7 209 7 133
-1 174 2 183 13 10 11 18 10 49 -6 27 -14 48 -17 77 -13 22 3 80 5 128 4 97
-1 117 8 117 50 l0 26 23 -27 c32 -38 58 -48 126 -48 50 0 61 3 66 20 6 19 6
19 38 0 17 -11 50 -22 74 -26 45 -7 138 11 163 31 26 21 44 29 36 16 -17 -27
15 -41 95 -41 81 0 88 3 95 48 2 15 11 61 18 102 8 41 20 108 26 147 10 62 14
72 28 65 23 -12 150 -9 161 3 5 6 12 27 15 47 3 21 10 57 15 80 5 24 12 61 15
83 4 22 9 54 11 70 3 17 7 42 9 58 3 15 0 41 -6 58 -17 50 -47 58 -202 54
-139 -3 -155 -8 -156 -42 0 -18 -10 -16 -29 5 -38 44 -168 54 -236 20 -27 -14
-32 -14 -48 2 -14 14 -16 27 -11 73 8 69 -3 77 -102 74 l-69 -2 -12 -35 c-7
-19 -12 -48 -12 -63 -1 -20 -7 -30 -21 -34 -11 -3 -20 -12 -20 -19 0 -19 -9
-18 -55 6 -52 27 -132 26 -196 -1 -27 -12 -49 -25 -49 -30 0 -5 -5 -9 -10 -9
-6 0 -8 10 -5 23 2 12 6 36 9 52 2 17 7 46 10 65 4 19 8 44 10 55 2 11 7 20
12 21 52 3 118 34 142 67 13 17 15 16 34 -8 11 -14 34 -33 51 -42 58 -30 174
-22 226 16 25 19 25 18 36 -3 10 -20 18 -21 170 -23 99 -1 171 2 188 9 22 9
31 8 37 -1 4 -7 25 -13 46 -13 195 2 264 5 264 13 0 6 8 6 19 -1 25 -13 136
-13 160 0 12 6 21 26 25 53 7 43 11 70 21 125 3 15 12 65 20 112 8 47 17 96
20 110 3 14 8 45 11 70 3 24 7 47 9 50 2 4 7 29 11 56 7 58 10 64 30 64 10 0
13 -8 10 -27 -7 -42 -55 -314 -61 -345 -3 -16 -7 -40 -10 -55 -19 -100 -17
-138 7 -173 26 -38 49 -48 125 -49 42 -1 54 3 63 19 10 19 11 19 47 -3 29 -17
53 -21 103 -21 110 1 189 58 206 148 2 11 6 31 8 43 9 44 20 119 21 138 0 19
7 20 97 20 59 1 102 5 109 12 6 6 13 26 15 45 2 18 6 42 8 53 10 39 -9 50 -86
52 -40 1 -80 2 -90 2 -16 1 -17 17 -2 91 17 83 16 119 -5 153 -12 19 -37 43
-57 52 -51 24 -139 23 -197 -3 -38 -17 -47 -18 -47 -6 0 8 -6 14 -13 14 -11 0
-12 11 -4 55 13 76 4 85 -87 85 -41 0 -77 -5 -83 -11 -9 -9 -10 -7 -6 10 9 35
-14 51 -75 51 -79 0 -135 -29 -156 -81 -9 -22 -16 -48 -16 -59 0 -11 -13 -33
-30 -50 l-29 -30 -35 21 c-67 39 -194 23 -252 -32 l-22 -21 -7 21 c-10 33 -48
52 -105 53 -49 0 -51 1 -46 22 3 13 8 41 11 62 3 21 8 44 10 51 9 27 -25 43
-93 43 -37 0 -73 -4 -80 -9 -14 -9 -23 -41 -42 -158 l-12 -73 -31 24 c-76 57
-208 51 -277 -14 l-32 -30 -24 30 c-26 31 -67 48 -124 52 -45 3 -108 -10 -133
-27 -16 -11 -22 -10 -38 6 -16 16 -18 28 -13 75 8 68 2 74 -84 74 -87 0 -99
-8 -108 -76 -8 -65 -26 -78 -83 -58 -19 6 -45 10 -56 7 -11 -3 -64 -6 -118 -7
l-98 -2 6 36 c4 19 9 49 12 65 2 17 6 35 8 42 2 7 -3 19 -11 28 -21 20 -146
21 -167 1 -8 -8 -20 -50 -27 -94 l-12 -79 -56 2 c-82 3 -98 -6 -115 -62 l-15
-48 5 47 c5 43 4 48 -18 56 -19 7 -103 9 -166 3 -6 -1 -17 -26 -24 -56 -7 -31
-17 -59 -22 -62 -6 -3 -7 -1 -4 5 4 5 8 29 9 53 2 53 -14 66 -85 64 l-53 -1
13 79 c11 60 11 82 2 93 -16 19 -152 20 -168 0 -6 -7 -18 -49 -26 -92 -9 -43
-17 -79 -18 -81 -2 -1 -16 1 -33 6 -37 10 -98 -5 -120 -30 -16 -18 -17 -17
-49 7 -24 18 -44 24 -76 24 -78 -3 -214 -7 -231 -9 -10 0 -20 -12 -24 -27 -6
-25 -7 -25 -28 -6 -72 64 -217 58 -292 -13 -35 -34 -55 -96 -70 -221 -5 -48
-4 -52 18 -58 21 -6 21 -7 5 -17 -24 -14 -53 -75 -62 -134 -5 -27 -10 -57 -11
-65 -2 -8 -5 -29 -9 -47 l-6 -31 -68 0 c-79 1 -76 -9 -46 138 3 14 7 39 10 55
4 28 7 45 20 115 3 14 7 43 11 65 3 22 7 47 9 55 3 8 7 32 11 54 3 21 8 48 10
60 2 11 7 37 10 56 3 19 7 42 9 50 2 8 7 38 11 65 3 28 8 53 10 57 2 3 -3 14
-12 22 -20 20 -166 23 -182 3z m2667 -596 l22 -31 -56 0 -57 0 6 33 c3 17 9
52 12 76 l7 44 22 -45 c12 -25 32 -60 44 -77z m1812 22 c16 -23 29 -44 29 -47
0 -3 -24 -6 -54 -6 l-54 0 8 38 c4 20 11 55 15 77 l8 40 10 -30 c5 -16 23 -49
38 -72z m-1256 67 c45 0 63 -4 61 -12 -2 -7 -6 -33 -10 -58 l-8 -46 -79 -1
c-70 -1 -79 1 -75 15 3 10 8 39 12 65 5 37 10 47 21 43 8 -3 43 -6 78 -6z
m-1380 -127 c-44 -235 -56 -324 -46 -337 9 -10 48 -13 170 -14 87 0 163 3 170
7 9 6 27 83 45 196 26 161 33 184 50 157 3 -4 37 -7 75 -6 83 4 79 14 52 -130
-26 -140 -16 -186 44 -212 19 -8 54 -14 78 -14 l43 0 -14 -84 -15 -83 -51 -1
c-28 0 -73 -1 -101 -1 -27 -1 -81 0 -119 1 -57 1 -71 -2 -83 -18 -9 -12 -16
-15 -21 -8 -22 34 -131 47 -168 20 -17 -13 -22 -13 -43 1 -17 11 -36 14 -70 9
-25 -4 -53 -7 -61 -6 -8 0 -47 1 -86 2 l-72 1 5 31 c2 17 8 45 12 61 4 17 6
40 5 53 -3 19 1 22 29 22 18 0 40 6 49 13 14 10 66 168 107 325 13 47 24 57
16 15z m-551 -128 c-3 -30 -6 -81 -8 -113 -2 -59 -10 -82 -27 -82 -10 0 -8 32
4 95 3 11 8 43 12 70 5 28 9 53 11 58 1 4 2 12 3 17 0 6 3 10 5 10 3 0 2 -25
0 -55z m244 -138 c-2 -67 -4 -73 -23 -71 -11 1 -19 7 -17 15 2 8 5 21 7 29 8
39 26 100 30 100 3 0 4 -33 3 -73z m1052 -66 c0 -4 -7 -8 -15 -8 -8 0 -15 6
-15 13 0 8 6 11 15 8 8 -4 15 -9 15 -13z m-1139 -20 c7 -1 0 -72 -7 -80 -2 -2
-8 7 -13 21 -5 13 -16 30 -25 37 -28 24 -16 30 45 22z m-216 -173 c-3 -13 -12
-52 -20 -88 l-15 -65 5 60 c3 33 7 69 9 80 3 11 5 23 5 28 1 4 6 7 11 7 6 0 8
-10 5 -22z m151 -238 c-3 -14 -9 -43 -13 -65 -4 -22 -8 -43 -9 -47 -1 -5 -2
-23 -3 -40 -1 -30 -5 -26 -47 52 -25 46 -50 91 -57 98 -16 20 2 27 72 27 60 0
61 -1 57 -25z m-250 -292 c-3 -29 -8 -62 -10 -73 -3 -11 -5 -26 -5 -33 -1 -7
-6 -10 -11 -7 -6 4 -8 9 -6 13 2 4 7 30 10 57 4 28 10 60 13 73 10 41 15 23 9
-30z"/>
<path d="M4347 2544 c-54 -17 -121 -77 -142 -128 -8 -18 -30 -122 -49 -232
-20 -109 -38 -208 -40 -219 -2 -11 -7 -42 -10 -69 -4 -27 -9 -53 -12 -57 -3
-5 -7 -28 -9 -51 -3 -24 -10 -67 -16 -97 -18 -88 -34 -84 351 -83 353 1 377 4
440 50 80 59 96 102 134 350 5 30 19 114 21 122 1 3 5 30 9 60 5 30 10 62 11
71 5 26 16 92 19 114 8 50 19 122 22 139 8 45 0 46 -350 45 -262 0 -341 -3
-379 -15z"/>
</g>
</svg>
